<svg xmlns="http://www.w3.org/2000/svg" xmlns:xlink="http://www.w3.org/1999/xlink" width="800" zoomAndPan="magnify" viewBox="0 0 600 599.999999" height="800" preserveAspectRatio="xMidYMid meet" version="1.0"><defs><g/><clipPath id="5a4f8f9453"><path d="M 191.429688 0.183594 L 233.40625 0.183594 L 233.40625 147.613281 L 191.429688 147.613281 Z M 191.429688 0.183594 " clip-rule="nonzero"/></clipPath><clipPath id="a2ebf41d20"><path d="M 0.191406 0.183594 L 42.171875 0.183594 L 42.171875 147.613281 L 0.191406 147.613281 Z M 0.191406 0.183594 " clip-rule="nonzero"/></clipPath><clipPath id="f8586eca4b"><path d="M 89 54.128906 L 144.617188 54.128906 L 144.617188 93.683594 L 89 93.683594 Z M 89 54.128906 " clip-rule="nonzero"/></clipPath><clipPath id="8ecf1c9c82"><rect x="0" width="303" y="0" height="79"/></clipPath><clipPath id="5e5d339568"><rect x="0" width="188" y="0" height="32"/></clipPath><clipPath id="24154d7c6f"><rect x="0" width="552" y="0" height="149"/></clipPath></defs><g transform="matrix(1, 0, 0, 1, 24, 226)"><g clip-path="url(#24154d7c6f)"><path fill="#c60000" d="M 201.796875 73.898438 C 201.796875 64.648438 200.039062 55.628906 196.5625 47.089844 C 192.96875 38.246094 187.6875 30.3125 180.871094 23.507812 C 178.082031 20.722656 173.558594 20.722656 170.769531 23.507812 C 167.980469 26.289062 167.980469 30.800781 170.769531 33.585938 C 176.234375 39.035156 180.457031 45.382812 183.332031 52.449219 C 186.109375 59.277344 187.515625 66.496094 187.515625 73.898438 C 187.515625 81.300781 186.109375 88.519531 183.332031 95.347656 C 180.457031 102.414062 176.234375 108.761719 170.769531 114.210938 C 167.980469 116.992188 167.980469 121.507812 170.769531 124.289062 C 172.164062 125.683594 173.992188 126.378906 175.820312 126.378906 C 177.648438 126.378906 179.472656 125.683594 180.871094 124.289062 C 187.6875 117.484375 192.972656 109.550781 196.5625 100.707031 C 200.039062 92.167969 201.796875 83.148438 201.796875 73.898438 " fill-opacity="1" fill-rule="nonzero"/><g clip-path="url(#5a4f8f9453)"><path fill="#c60000" d="M 225.964844 35.792969 C 220.855469 23.226562 213.351562 11.949219 203.65625 2.273438 C 200.867188 -0.507812 196.34375 -0.507812 193.554688 2.273438 C 190.769531 5.058594 190.769531 9.570312 193.554688 12.351562 C 201.894531 20.671875 208.34375 30.363281 212.730469 41.15625 C 216.972656 51.578125 219.125 62.597656 219.125 73.898438 C 219.125 85.199219 216.972656 96.214844 212.730469 106.644531 C 208.34375 117.433594 201.894531 127.125 193.554688 135.441406 C 190.769531 138.226562 190.769531 142.742188 193.554688 145.523438 C 194.953125 146.914062 196.78125 147.609375 198.609375 147.609375 C 200.4375 147.609375 202.261719 146.914062 203.65625 145.523438 C 213.351562 135.847656 220.855469 124.570312 225.96875 112.003906 C 230.90625 99.871094 233.40625 87.046875 233.40625 73.898438 C 233.40625 60.75 230.90625 47.929688 225.964844 35.792969 " fill-opacity="1" fill-rule="nonzero"/></g><path fill="#c60000" d="M 31.800781 73.898438 C 31.800781 83.148438 33.558594 92.167969 37.035156 100.710938 C 40.628906 109.550781 45.910156 117.488281 52.726562 124.292969 C 55.515625 127.078125 60.042969 127.078125 62.832031 124.292969 C 65.617188 121.507812 65.617188 116.996094 62.832031 114.210938 C 57.367188 108.761719 53.140625 102.414062 50.265625 95.347656 C 47.488281 88.519531 46.082031 81.304688 46.082031 73.898438 C 46.082031 66.496094 47.488281 59.28125 50.265625 52.449219 C 53.140625 45.382812 57.367188 39.035156 62.832031 33.585938 C 65.617188 30.800781 65.617188 26.292969 62.832031 23.507812 C 61.433594 22.117188 59.605469 21.417969 57.777344 21.417969 C 55.949219 21.417969 54.125 22.117188 52.726562 23.507812 C 45.90625 30.3125 40.628906 38.246094 37.035156 47.089844 C 33.558594 55.628906 31.800781 64.648438 31.800781 73.898438 " fill-opacity="1" fill-rule="nonzero"/><g clip-path="url(#a2ebf41d20)"><path fill="#c60000" d="M 7.632812 112.003906 C 12.742188 124.570312 20.246094 135.851562 29.941406 145.523438 C 32.730469 148.308594 37.253906 148.308594 40.042969 145.523438 C 42.828125 142.742188 42.828125 138.230469 40.042969 135.441406 C 31.703125 127.125 25.253906 117.433594 20.867188 106.644531 C 16.625 96.21875 14.476562 85.203125 14.476562 73.898438 C 14.476562 62.597656 16.625 51.582031 20.867188 41.15625 C 25.253906 30.363281 31.703125 20.675781 40.042969 12.355469 C 42.828125 9.574219 42.828125 5.058594 40.042969 2.273438 C 38.648438 0.882812 36.820312 0.1875 34.992188 0.1875 C 33.164062 0.1875 31.335938 0.882812 29.941406 2.273438 C 20.246094 11.949219 12.742188 23.226562 7.628906 35.792969 C 2.695312 47.929688 0.191406 60.75 0.191406 73.898438 C 0.191406 87.046875 2.695312 99.871094 7.632812 112.003906 " fill-opacity="1" fill-rule="nonzero"/></g><path fill="#c60000" d="M 152.4375 73.898438 C 152.4375 93.398438 136.597656 109.207031 117.058594 109.207031 C 97.519531 109.207031 81.683594 93.398438 81.683594 73.898438 C 81.683594 54.398438 97.519531 38.589844 117.058594 38.589844 C 136.597656 38.589844 152.4375 54.398438 152.4375 73.898438 " fill-opacity="1" fill-rule="nonzero"/><g clip-path="url(#f8586eca4b)"><path fill="#ffffff" d="M 130.769531 54.128906 C 129.738281 54.128906 128.890625 54.972656 128.890625 56.007812 C 128.890625 56.972656 129.625 57.773438 130.566406 57.875 L 130.566406 63.457031 L 122.011719 63.457031 C 121.851562 63.457031 121.71875 63.585938 121.71875 63.746094 L 121.71875 67.566406 C 120.75 67.640625 119.984375 68.453125 119.984375 69.4375 C 119.984375 70.472656 120.828125 71.316406 121.863281 71.316406 C 122.898438 71.316406 123.742188 70.472656 123.742188 69.4375 C 123.742188 68.554688 123.125 67.8125 122.300781 67.613281 L 122.300781 64.039062 L 130.851562 64.039062 C 131.011719 64.039062 131.144531 63.910156 131.144531 63.75 L 131.144531 57.847656 C 132 57.675781 132.648438 56.917969 132.648438 56.011719 C 132.652344 54.972656 131.804688 54.128906 130.769531 54.128906 Z M 130.769531 54.707031 C 131.492188 54.707031 132.070312 55.289062 132.070312 56.007812 C 132.070312 56.691406 131.550781 57.234375 130.882812 57.292969 C 130.875 57.292969 130.863281 57.292969 130.851562 57.292969 C 130.824219 57.292969 130.796875 57.296875 130.769531 57.304688 C 130.050781 57.304688 129.472656 56.726562 129.472656 56.007812 C 129.472656 55.289062 130.050781 54.707031 130.769531 54.707031 Z M 117.457031 62.121094 C 116.5625 62.121094 115.808594 62.757812 115.625 63.601562 L 110.050781 63.601562 C 109.890625 63.601562 109.761719 63.730469 109.761719 63.890625 L 109.761719 70.339844 C 108.824219 70.445312 108.09375 71.242188 108.09375 72.203125 C 108.09375 73.238281 108.9375 74.085938 109.972656 74.085938 C 111.007812 74.085938 111.851562 73.238281 111.851562 72.203125 C 111.851562 71.296875 111.199219 70.535156 110.339844 70.363281 L 110.339844 64.183594 L 115.589844 64.183594 C 115.679688 65.132812 116.484375 65.882812 117.457031 65.882812 C 118.488281 65.882812 119.335938 65.039062 119.335938 64.003906 C 119.335938 62.96875 118.488281 62.121094 117.457031 62.121094 Z M 117.457031 62.703125 C 118.179688 62.703125 118.753906 63.28125 118.753906 64.003906 C 118.753906 64.722656 118.175781 65.300781 117.457031 65.300781 C 116.738281 65.300781 116.15625 64.722656 116.15625 64.003906 C 116.15625 63.28125 116.734375 62.703125 117.457031 62.703125 Z M 142.574219 64.484375 C 141.664062 64.484375 140.902344 65.136719 140.730469 65.996094 L 127.011719 65.996094 C 127.003906 65.996094 126.992188 65.996094 126.984375 65.996094 C 126.835938 66.011719 126.722656 66.136719 126.722656 66.285156 L 126.722656 73.117188 C 125.816406 73.246094 125.109375 74.03125 125.109375 74.972656 C 125.109375 76.007812 125.953125 76.851562 126.988281 76.851562 C 128.023438 76.851562 128.867188 76.007812 128.867188 74.972656 C 128.867188 74.046875 128.1875 73.273438 127.304688 73.121094 L 127.304688 66.574219 L 140.707031 66.574219 C 140.8125 67.507812 141.609375 68.238281 142.574219 68.238281 C 143.605469 68.238281 144.449219 67.394531 144.449219 66.359375 C 144.449219 65.328125 143.609375 64.484375 142.574219 64.484375 Z M 142.574219 65.0625 C 143.292969 65.0625 143.871094 65.640625 143.871094 66.363281 C 143.871094 67.082031 143.292969 67.660156 142.574219 67.660156 C 141.851562 67.660156 141.273438 67.082031 141.273438 66.363281 C 141.273438 65.640625 141.851562 65.0625 142.574219 65.0625 Z M 90.90625 65.199219 C 89.871094 65.199219 89.027344 66.042969 89.027344 67.078125 C 89.027344 68.113281 89.871094 68.957031 90.90625 68.957031 C 91.816406 68.957031 92.574219 68.304688 92.746094 67.445312 L 105.554688 67.445312 L 105.554688 75.199219 C 105.554688 75.359375 105.6875 75.492188 105.847656 75.492188 L 122.519531 75.492188 C 122.679688 75.492188 122.808594 75.359375 122.808594 75.199219 C 122.808594 75.042969 122.679688 74.910156 122.519531 74.910156 L 106.136719 74.910156 L 106.136719 67.15625 C 106.136719 66.996094 106.003906 66.863281 105.847656 66.863281 L 92.769531 66.863281 C 92.664062 65.929688 91.867188 65.199219 90.90625 65.199219 Z M 90.90625 65.78125 C 91.628906 65.78125 92.207031 66.359375 92.207031 67.078125 C 92.207031 67.796875 91.628906 68.378906 90.90625 68.378906 C 90.183594 68.378906 89.609375 67.796875 89.609375 67.078125 C 89.609375 66.359375 90.183594 65.78125 90.90625 65.78125 Z M 121.863281 68.136719 C 122.585938 68.136719 123.164062 68.714844 123.164062 69.4375 C 123.164062 70.15625 122.585938 70.734375 121.863281 70.734375 C 121.144531 70.734375 120.566406 70.15625 120.566406 69.4375 C 120.566406 68.714844 121.144531 68.136719 121.863281 68.136719 Z M 137.019531 70.738281 C 135.988281 70.738281 135.140625 71.578125 135.140625 72.613281 C 135.140625 73.550781 135.832031 74.328125 136.730469 74.46875 L 136.730469 85.132812 L 125.769531 85.132812 C 125.625 84.238281 124.847656 83.546875 123.914062 83.546875 C 122.882812 83.546875 122.035156 84.394531 122.035156 85.429688 C 122.035156 86.460938 122.878906 87.308594 123.914062 87.308594 C 124.855469 87.308594 125.632812 86.613281 125.769531 85.710938 L 137.015625 85.710938 C 137.175781 85.710938 137.308594 85.582031 137.308594 85.421875 L 137.308594 74.46875 C 138.207031 74.328125 138.898438 73.550781 138.898438 72.613281 C 138.898438 71.578125 138.054688 70.738281 137.019531 70.738281 Z M 109.972656 70.90625 C 110.695312 70.90625 111.273438 71.484375 111.273438 72.203125 C 111.273438 72.925781 110.695312 73.503906 109.972656 73.503906 C 109.25 73.503906 108.671875 72.925781 108.671875 72.203125 C 108.671875 71.484375 109.253906 70.90625 109.972656 70.90625 Z M 137.019531 71.316406 C 137.742188 71.316406 138.320312 71.894531 138.320312 72.613281 C 138.320312 73.332031 137.738281 73.910156 137.019531 73.910156 C 136.296875 73.910156 135.71875 73.332031 135.71875 72.613281 C 135.71875 71.894531 136.296875 71.316406 137.019531 71.316406 Z M 126.992188 73.675781 C 127.714844 73.675781 128.289062 74.253906 128.289062 74.972656 C 128.289062 75.695312 127.710938 76.273438 126.992188 76.273438 C 126.269531 76.273438 125.691406 75.691406 125.691406 74.972656 C 125.691406 74.25 126.269531 73.675781 126.992188 73.675781 Z M 95.726562 75.757812 C 94.691406 75.757812 93.84375 76.601562 93.84375 77.636719 C 93.84375 78.671875 94.6875 79.515625 95.726562 79.515625 C 96.652344 79.515625 97.421875 78.839844 97.574219 77.957031 L 101.253906 77.957031 L 104.289062 83.390625 C 104.34375 83.480469 104.4375 83.539062 104.542969 83.539062 L 111.71875 83.539062 C 111.878906 83.539062 112.007812 83.40625 112.007812 83.246094 L 112.007812 77.59375 C 112.011719 77.433594 111.882812 77.300781 111.722656 77.300781 C 111.722656 77.300781 111.71875 77.300781 111.714844 77.300781 C 111.558594 77.300781 111.425781 77.429688 111.429688 77.59375 L 111.429688 82.957031 L 104.710938 82.957031 L 101.679688 77.523438 C 101.625 77.433594 101.53125 77.375 101.425781 77.375 L 97.582031 77.375 C 97.453125 76.464844 96.667969 75.757812 95.726562 75.757812 Z M 95.726562 76.339844 C 96.445312 76.339844 97.023438 76.917969 97.023438 77.636719 C 97.023438 78.359375 96.445312 78.9375 95.726562 78.9375 C 95.003906 78.9375 94.425781 78.359375 94.425781 77.636719 C 94.425781 76.914062 95.003906 76.339844 95.726562 76.339844 Z M 114.226562 78.390625 C 114.078125 78.40625 113.964844 78.53125 113.964844 78.679688 L 113.964844 83.554688 C 112.980469 83.613281 112.195312 84.429688 112.195312 85.429688 C 112.195312 86.460938 113.039062 87.308594 114.074219 87.308594 C 115.109375 87.308594 115.953125 86.464844 115.953125 85.429688 C 115.953125 84.554688 115.351562 83.820312 114.546875 83.613281 L 114.546875 78.972656 L 126.871094 78.972656 C 127.03125 78.976562 127.164062 78.847656 127.167969 78.6875 C 127.171875 78.527344 127.042969 78.394531 126.882812 78.390625 C 126.878906 78.390625 126.875 78.390625 126.871094 78.390625 L 114.257812 78.390625 C 114.246094 78.390625 114.234375 78.390625 114.226562 78.390625 Z M 131.808594 79.140625 C 130.882812 79.140625 130.109375 79.824219 129.957031 80.710938 L 120.054688 80.710938 C 120.046875 80.710938 120.035156 80.710938 120.027344 80.710938 C 119.878906 80.726562 119.765625 80.851562 119.765625 81.003906 L 119.835938 90.152344 C 118.984375 90.332031 118.34375 91.089844 118.34375 91.992188 C 118.34375 93.027344 119.1875 93.871094 120.222656 93.871094 C 121.257812 93.871094 122.101562 93.027344 122.101562 91.992188 C 122.101562 91.023438 121.359375 90.21875 120.417969 90.121094 L 120.347656 81.289062 L 129.949219 81.289062 C 130.082031 82.199219 130.867188 82.902344 131.808594 82.902344 C 132.839844 82.902344 133.6875 82.058594 133.6875 81.019531 C 133.6875 79.988281 132.84375 79.140625 131.808594 79.140625 Z M 131.808594 79.722656 C 132.53125 79.722656 133.105469 80.300781 133.105469 81.019531 C 133.105469 81.742188 132.53125 82.320312 131.808594 82.320312 C 131.097656 82.320312 130.53125 81.757812 130.511719 81.050781 C 130.519531 81.019531 130.519531 80.992188 130.515625 80.964844 C 130.546875 80.269531 131.109375 79.722656 131.808594 79.722656 Z M 114.074219 84.128906 C 114.796875 84.128906 115.375 84.707031 115.375 85.429688 C 115.375 86.148438 114.792969 86.726562 114.074219 86.726562 C 113.355469 86.726562 112.777344 86.148438 112.777344 85.429688 C 112.777344 84.707031 113.351562 84.128906 114.074219 84.128906 Z M 123.914062 84.128906 C 124.636719 84.128906 125.214844 84.707031 125.214844 85.429688 C 125.214844 86.148438 124.636719 86.726562 123.914062 86.726562 C 123.195312 86.726562 122.617188 86.148438 122.617188 85.429688 C 122.617188 84.707031 123.195312 84.128906 123.914062 84.128906 Z M 120.222656 90.691406 C 120.945312 90.691406 121.523438 91.269531 121.523438 91.992188 C 121.523438 92.710938 120.941406 93.289062 120.222656 93.289062 C 119.5 93.289062 118.925781 92.710938 118.925781 91.992188 C 118.925781 91.269531 119.503906 90.691406 120.222656 90.691406 Z M 120.222656 90.691406 " fill-opacity="1" fill-rule="nonzero"/></g><g transform="matrix(1, 0, 0, 1, 249, 14)"><g clip-path="url(#8ecf1c9c82)"><g fill="#ffffff" fill-opacity="1"><g transform="translate(0.356441, 60.808813)"><g><path d="M 13.484375 -18.0625 L 13.484375 -6.8125 L 33.125 -6.8125 L 33.125 0 L 5.34375 0 L 5.34375 -41.140625 L 32.671875 -41.140625 L 32.671875 -34.34375 L 13.484375 -34.34375 L 13.484375 -24.71875 L 30.25 -24.71875 L 30.25 -18.0625 Z M 13.484375 -18.0625 "/></g></g></g><g fill="#ffffff" fill-opacity="1"><g transform="translate(35.731861, 60.808813)"><g><path d="M 26.0625 0 L 1.625 0 L 1.625 -6.4375 L 16.65625 -24.28125 L 16.5 -24.875 L 2.34375 -24.875 L 2.34375 -31.078125 L 25.84375 -31.078125 L 25.84375 -24.625 L 10.8125 -6.78125 L 11 -6.1875 L 26.0625 -6.1875 Z M 26.0625 0 "/></g></g></g><g fill="#ffffff" fill-opacity="1"><g transform="translate(63.424313, 60.808813)"><g><path d="M 4.46875 0 L 4.46875 -43.515625 L 12.265625 -43.515625 L 12.265625 -26.984375 L 12.859375 -26.875 C 13.890625 -28.394531 15.15625 -29.566406 16.65625 -30.390625 C 18.15625 -31.222656 19.96875 -31.640625 22.09375 -31.640625 C 28.9375 -31.640625 32.359375 -27.753906 32.359375 -19.984375 L 32.359375 0 L 24.578125 0 L 24.578125 -19 C 24.578125 -21.113281 24.148438 -22.648438 23.296875 -23.609375 C 22.453125 -24.566406 21.140625 -25.046875 19.359375 -25.046875 C 17.179688 -25.046875 15.453125 -24.316406 14.171875 -22.859375 C 12.898438 -21.410156 12.265625 -19.148438 12.265625 -16.078125 L 12.265625 0 Z M 4.46875 0 "/></g></g></g><g fill="#ffffff" fill-opacity="1"><g transform="translate(99.784729, 60.808813)"><g><path d="M 4.46875 0 L 4.46875 -31.046875 L 11.96875 -31.046875 L 11.96875 -26.875 L 12.546875 -26.765625 C 13.566406 -28.429688 14.753906 -29.660156 16.109375 -30.453125 C 17.472656 -31.242188 19.210938 -31.640625 21.328125 -31.640625 C 23.679688 -31.640625 25.566406 -31.171875 26.984375 -30.234375 C 28.410156 -29.304688 29.453125 -27.953125 30.109375 -26.171875 L 30.703125 -26.171875 C 31.660156 -28.035156 32.894531 -29.410156 34.40625 -30.296875 C 35.914062 -31.191406 37.796875 -31.640625 40.046875 -31.640625 C 46.484375 -31.640625 49.703125 -28.054688 49.703125 -20.890625 L 49.703125 0 L 41.90625 0 L 41.90625 -19.890625 C 41.90625 -21.710938 41.546875 -23.023438 40.828125 -23.828125 C 40.117188 -24.640625 38.976562 -25.046875 37.40625 -25.046875 C 33.125 -25.046875 30.984375 -22.1875 30.984375 -16.46875 L 30.984375 0 L 23.1875 0 L 23.1875 -19.890625 C 23.1875 -21.710938 22.828125 -23.023438 22.109375 -23.828125 C 21.390625 -24.640625 20.238281 -25.046875 18.65625 -25.046875 C 16.65625 -25.046875 15.085938 -24.375 13.953125 -23.03125 C 12.828125 -21.695312 12.265625 -19.566406 12.265625 -16.640625 L 12.265625 0 Z M 4.46875 0 "/></g></g></g><g fill="#ffffff" fill-opacity="1"><g transform="translate(153.481069, 60.808813)"><g><path d="M 12.109375 0.59375 C 10.117188 0.59375 8.390625 0.226562 6.921875 -0.5 C 5.460938 -1.238281 4.335938 -2.316406 3.546875 -3.734375 C 2.753906 -5.148438 2.359375 -6.851562 2.359375 -8.84375 C 2.359375 -10.675781 2.753906 -12.21875 3.546875 -13.46875 C 4.335938 -14.71875 5.554688 -15.738281 7.203125 -16.53125 C 8.859375 -17.332031 11.015625 -17.945312 13.671875 -18.375 C 15.535156 -18.675781 16.945312 -19.003906 17.90625 -19.359375 C 18.875 -19.710938 19.523438 -20.113281 19.859375 -20.5625 C 20.203125 -21.019531 20.375 -21.597656 20.375 -22.296875 C 20.375 -23.285156 20.023438 -24.039062 19.328125 -24.5625 C 18.640625 -25.09375 17.488281 -25.359375 15.875 -25.359375 C 14.144531 -25.359375 12.5 -24.972656 10.9375 -24.203125 C 9.382812 -23.429688 8.035156 -22.421875 6.890625 -21.171875 L 6.328125 -21.171875 L 3.0625 -26.09375 C 4.644531 -27.832031 6.570312 -29.191406 8.84375 -30.171875 C 11.113281 -31.148438 13.585938 -31.640625 16.265625 -31.640625 C 20.378906 -31.640625 23.351562 -30.765625 25.1875 -29.015625 C 27.03125 -27.273438 27.953125 -24.800781 27.953125 -21.59375 L 27.953125 -8.109375 C 27.953125 -6.710938 28.5625 -6.015625 29.78125 -6.015625 C 30.25 -6.015625 30.707031 -6.101562 31.15625 -6.28125 L 31.546875 -6.15625 L 32.109375 -0.734375 C 31.679688 -0.453125 31.082031 -0.222656 30.3125 -0.046875 C 29.539062 0.128906 28.695312 0.21875 27.78125 0.21875 C 25.925781 0.21875 24.476562 -0.132812 23.4375 -0.84375 C 22.394531 -1.550781 21.644531 -2.664062 21.1875 -4.1875 L 20.609375 -4.25 C 19.085938 -1.019531 16.253906 0.59375 12.109375 0.59375 Z M 14.578125 -5.234375 C 16.378906 -5.234375 17.816406 -5.835938 18.890625 -7.046875 C 19.972656 -8.253906 20.515625 -9.941406 20.515625 -12.109375 L 20.515625 -15.25 L 19.984375 -15.359375 C 19.515625 -14.984375 18.898438 -14.671875 18.140625 -14.421875 C 17.378906 -14.171875 16.285156 -13.921875 14.859375 -13.671875 C 13.171875 -13.390625 11.957031 -12.90625 11.21875 -12.21875 C 10.476562 -11.539062 10.109375 -10.570312 10.109375 -9.3125 C 10.109375 -7.976562 10.5 -6.960938 11.28125 -6.265625 C 12.070312 -5.578125 13.171875 -5.234375 14.578125 -5.234375 Z M 14.578125 -5.234375 "/></g></g></g><g fill="#ffffff" fill-opacity="1"><g transform="translate(186.211072, 60.808813)"><g><path d="M 13.484375 -41.140625 L 13.484375 -6.8125 L 31.96875 -6.8125 L 31.96875 0 L 5.34375 0 L 5.34375 -41.140625 Z M 13.484375 -41.140625 "/></g></g></g><g fill="#ffffff" fill-opacity="1"><g transform="translate(219.532072, 60.808813)"><g><path d="M 8.359375 -34.765625 C 6.953125 -34.765625 5.804688 -35.1875 4.921875 -36.03125 C 4.046875 -36.882812 3.609375 -37.988281 3.609375 -39.34375 C 3.609375 -40.675781 4.046875 -41.769531 4.921875 -42.625 C 5.804688 -43.476562 6.953125 -43.90625 8.359375 -43.90625 C 9.296875 -43.90625 10.128906 -43.707031 10.859375 -43.3125 C 11.597656 -42.914062 12.164062 -42.375 12.5625 -41.6875 C 12.96875 -41.007812 13.171875 -40.226562 13.171875 -39.34375 C 13.171875 -38.46875 12.96875 -37.679688 12.5625 -36.984375 C 12.164062 -36.285156 11.597656 -35.738281 10.859375 -35.34375 C 10.128906 -34.957031 9.296875 -34.765625 8.359375 -34.765625 Z M 4.46875 0 L 4.46875 -31.046875 L 12.265625 -31.046875 L 12.265625 0 Z M 4.46875 0 "/></g></g></g><g fill="#ffffff" fill-opacity="1"><g transform="translate(236.248858, 60.808813)"><g><path d="M 21.359375 0 L 12.078125 0 L 0.59375 -31.046875 L 8.75 -31.046875 L 16.46875 -8.921875 L 17.109375 -8.921875 L 24.859375 -31.046875 L 32.8125 -31.046875 Z M 21.359375 0 "/></g></g></g><g fill="#ffffff" fill-opacity="1"><g transform="translate(269.035113, 60.808813)"><g><path d="M 30.671875 -13.765625 L 10.71875 -13.765625 C 10.945312 -11.054688 11.71875 -9.085938 13.03125 -7.859375 C 14.34375 -6.628906 16.132812 -6.015625 18.40625 -6.015625 C 20.1875 -6.015625 21.628906 -6.347656 22.734375 -7.015625 C 23.847656 -7.679688 24.742188 -8.691406 25.421875 -10.046875 L 26 -10.046875 L 31.1875 -6.734375 C 30.175781 -4.554688 28.644531 -2.789062 26.59375 -1.4375 C 24.550781 -0.0820312 21.820312 0.59375 18.40625 0.59375 C 15.195312 0.59375 12.421875 -0.015625 10.078125 -1.234375 C 7.742188 -2.453125 5.941406 -4.265625 4.671875 -6.671875 C 3.410156 -9.085938 2.78125 -12.03125 2.78125 -15.5 C 2.78125 -19.03125 3.445312 -22.003906 4.78125 -24.421875 C 6.113281 -26.847656 7.914062 -28.65625 10.1875 -29.84375 C 12.457031 -31.039062 15.007812 -31.640625 17.84375 -31.640625 C 22.238281 -31.640625 25.601562 -30.472656 27.9375 -28.140625 C 30.269531 -25.816406 31.4375 -22.40625 31.4375 -17.90625 C 31.4375 -16.269531 31.378906 -15 31.265625 -14.09375 Z M 23.984375 -18.796875 C 23.898438 -21.160156 23.347656 -22.878906 22.328125 -23.953125 C 21.304688 -25.035156 19.8125 -25.578125 17.84375 -25.578125 C 13.90625 -25.578125 11.585938 -23.316406 10.890625 -18.796875 Z M 23.984375 -18.796875 "/></g></g></g></g></g><g transform="matrix(1, 0, 0, 1, 254, 86)"><g clip-path="url(#5e5d339568)"><g fill="#ffffff" fill-opacity="1"><g transform="translate(0.811492, 23.892803)"><g><path d="M 8.640625 0.234375 C 7.066406 0.234375 5.894531 -0.351562 5.125 -1.53125 L 4.890625 -1.484375 L 4.890625 0 L 1.78125 0 L 1.78125 -17.34375 L 4.890625 -17.34375 L 4.890625 -10.90625 L 5.125 -10.875 C 5.550781 -11.457031 6.050781 -11.890625 6.625 -12.171875 C 7.207031 -12.460938 7.90625 -12.609375 8.71875 -12.609375 C 9.71875 -12.609375 10.585938 -12.367188 11.328125 -11.890625 C 12.078125 -11.421875 12.660156 -10.707031 13.078125 -9.75 C 13.503906 -8.789062 13.71875 -7.597656 13.71875 -6.171875 C 13.71875 -4.773438 13.5 -3.59375 13.0625 -2.625 C 12.632812 -1.664062 12.035156 -0.945312 11.265625 -0.46875 C 10.503906 0 9.628906 0.234375 8.640625 0.234375 Z M 7.703125 -2.40625 C 8.617188 -2.40625 9.316406 -2.707031 9.796875 -3.3125 C 10.273438 -3.925781 10.515625 -4.878906 10.515625 -6.171875 C 10.515625 -7.484375 10.273438 -8.441406 9.796875 -9.046875 C 9.316406 -9.660156 8.617188 -9.96875 7.703125 -9.96875 C 6.828125 -9.96875 6.132812 -9.65625 5.625 -9.03125 C 5.113281 -8.40625 4.859375 -7.453125 4.859375 -6.171875 C 4.859375 -4.898438 5.113281 -3.953125 5.625 -3.328125 C 6.132812 -2.710938 6.828125 -2.40625 7.703125 -2.40625 Z M 7.703125 -2.40625 "/></g></g></g><g fill="#ffffff" fill-opacity="1"><g transform="translate(15.388425, 23.892803)"><g><path d="M 2.734375 5.25 C 2.203125 5.25 1.722656 5.207031 1.296875 5.125 C 0.867188 5.039062 0.519531 4.929688 0.25 4.796875 L 0.734375 2.28125 L 0.9375 2.21875 C 1.125 2.3125 1.351562 2.390625 1.625 2.453125 C 1.90625 2.515625 2.191406 2.546875 2.484375 2.546875 C 2.984375 2.546875 3.398438 2.476562 3.734375 2.34375 C 4.066406 2.21875 4.347656 2.003906 4.578125 1.703125 C 4.816406 1.398438 5.023438 0.976562 5.203125 0.4375 L 0.265625 -12.375 L 3.515625 -12.375 L 6.59375 -3.765625 L 6.859375 -3.765625 L 9.859375 -12.375 L 13.015625 -12.375 L 8.046875 0.78125 C 7.648438 1.832031 7.210938 2.679688 6.734375 3.328125 C 6.265625 3.984375 5.707031 4.46875 5.0625 4.78125 C 4.414062 5.09375 3.640625 5.25 2.734375 5.25 Z M 2.734375 5.25 "/></g></g></g><g fill="#ffffff" fill-opacity="1"><g transform="translate(28.664655, 23.892803)"><g/></g></g><g fill="#ffffff" fill-opacity="1"><g transform="translate(34.080553, 23.892803)"><g><path d="M 5.375 -7.203125 L 5.375 -2.71875 L 13.203125 -2.71875 L 13.203125 0 L 2.125 0 L 2.125 -16.390625 L 13.015625 -16.390625 L 13.015625 -13.6875 L 5.375 -13.6875 L 5.375 -9.84375 L 12.0625 -9.84375 L 12.0625 -7.203125 Z M 5.375 -7.203125 "/></g></g></g><g fill="#ffffff" fill-opacity="1"><g transform="translate(48.175337, 23.892803)"><g><path d="M 10.390625 0 L 0.65625 0 L 0.65625 -2.5625 L 6.640625 -9.671875 L 6.578125 -9.921875 L 0.9375 -9.921875 L 0.9375 -12.375 L 10.296875 -12.375 L 10.296875 -9.8125 L 4.3125 -2.703125 L 4.390625 -2.46875 L 10.390625 -2.46875 Z M 10.390625 0 "/></g></g></g><g fill="#ffffff" fill-opacity="1"><g transform="translate(59.208961, 23.892803)"><g><path d="M 1.78125 0 L 1.78125 -17.34375 L 4.890625 -17.34375 L 4.890625 -10.75 L 5.125 -10.703125 C 5.539062 -11.316406 6.046875 -11.785156 6.640625 -12.109375 C 7.234375 -12.441406 7.953125 -12.609375 8.796875 -12.609375 C 11.523438 -12.609375 12.890625 -11.0625 12.890625 -7.96875 L 12.890625 0 L 9.796875 0 L 9.796875 -7.5625 C 9.796875 -8.414062 9.625 -9.03125 9.28125 -9.40625 C 8.945312 -9.789062 8.425781 -9.984375 7.71875 -9.984375 C 6.851562 -9.984375 6.164062 -9.691406 5.65625 -9.109375 C 5.144531 -8.535156 4.890625 -7.632812 4.890625 -6.40625 L 4.890625 0 Z M 1.78125 0 "/></g></g></g><g fill="#ffffff" fill-opacity="1"><g transform="translate(73.696197, 23.892803)"><g><path d="M 1.78125 0 L 1.78125 -12.375 L 4.765625 -12.375 L 4.765625 -10.703125 L 5 -10.671875 C 5.40625 -11.328125 5.878906 -11.8125 6.421875 -12.125 C 6.960938 -12.445312 7.65625 -12.609375 8.5 -12.609375 C 9.4375 -12.609375 10.1875 -12.421875 10.75 -12.046875 C 11.320312 -11.679688 11.738281 -11.144531 12 -10.4375 L 12.234375 -10.4375 C 12.617188 -11.175781 13.109375 -11.722656 13.703125 -12.078125 C 14.304688 -12.429688 15.054688 -12.609375 15.953125 -12.609375 C 18.523438 -12.609375 19.8125 -11.179688 19.8125 -8.328125 L 19.8125 0 L 16.703125 0 L 16.703125 -7.921875 C 16.703125 -8.648438 16.554688 -9.175781 16.265625 -9.5 C 15.984375 -9.820312 15.53125 -9.984375 14.90625 -9.984375 C 13.195312 -9.984375 12.34375 -8.84375 12.34375 -6.5625 L 12.34375 0 L 9.234375 0 L 9.234375 -7.921875 C 9.234375 -8.648438 9.085938 -9.175781 8.796875 -9.5 C 8.515625 -9.820312 8.0625 -9.984375 7.4375 -9.984375 C 6.632812 -9.984375 6.007812 -9.710938 5.5625 -9.171875 C 5.113281 -8.640625 4.890625 -7.789062 4.890625 -6.625 L 4.890625 0 Z M 1.78125 0 "/></g></g></g><g fill="#ffffff" fill-opacity="1"><g transform="translate(95.090662, 23.892803)"><g><path d="M 4.828125 0.234375 C 4.035156 0.234375 3.347656 0.0859375 2.765625 -0.203125 C 2.179688 -0.492188 1.726562 -0.921875 1.40625 -1.484375 C 1.09375 -2.046875 0.9375 -2.722656 0.9375 -3.515625 C 0.9375 -4.253906 1.09375 -4.867188 1.40625 -5.359375 C 1.726562 -5.859375 2.21875 -6.265625 2.875 -6.578125 C 3.53125 -6.898438 4.390625 -7.148438 5.453125 -7.328125 C 6.191406 -7.441406 6.753906 -7.566406 7.140625 -7.703125 C 7.523438 -7.847656 7.785156 -8.007812 7.921875 -8.1875 C 8.054688 -8.375 8.125 -8.601562 8.125 -8.875 C 8.125 -9.28125 7.984375 -9.585938 7.703125 -9.796875 C 7.429688 -10.003906 6.972656 -10.109375 6.328125 -10.109375 C 5.640625 -10.109375 4.984375 -9.953125 4.359375 -9.640625 C 3.742188 -9.335938 3.207031 -8.9375 2.75 -8.4375 L 2.515625 -8.4375 L 1.21875 -10.390625 C 1.851562 -11.085938 2.617188 -11.628906 3.515625 -12.015625 C 4.421875 -12.410156 5.410156 -12.609375 6.484375 -12.609375 C 8.117188 -12.609375 9.300781 -12.257812 10.03125 -11.5625 C 10.769531 -10.863281 11.140625 -9.878906 11.140625 -8.609375 L 11.140625 -3.234375 C 11.140625 -2.679688 11.378906 -2.40625 11.859375 -2.40625 C 12.046875 -2.40625 12.234375 -2.4375 12.421875 -2.5 L 12.578125 -2.453125 L 12.796875 -0.296875 C 12.617188 -0.179688 12.378906 -0.0859375 12.078125 -0.015625 C 11.773438 0.0546875 11.4375 0.09375 11.0625 0.09375 C 10.320312 0.09375 9.742188 -0.046875 9.328125 -0.328125 C 8.921875 -0.617188 8.625 -1.066406 8.4375 -1.671875 L 8.203125 -1.6875 C 7.597656 -0.40625 6.472656 0.234375 4.828125 0.234375 Z M 5.8125 -2.09375 C 6.53125 -2.09375 7.101562 -2.332031 7.53125 -2.8125 C 7.957031 -3.289062 8.171875 -3.960938 8.171875 -4.828125 L 8.171875 -6.078125 L 7.96875 -6.125 C 7.78125 -5.976562 7.535156 -5.851562 7.234375 -5.75 C 6.929688 -5.644531 6.492188 -5.546875 5.921875 -5.453125 C 5.242188 -5.335938 4.757812 -5.144531 4.46875 -4.875 C 4.175781 -4.601562 4.03125 -4.21875 4.03125 -3.71875 C 4.03125 -3.1875 4.1875 -2.78125 4.5 -2.5 C 4.8125 -2.226562 5.25 -2.09375 5.8125 -2.09375 Z M 5.8125 -2.09375 "/></g></g></g><g fill="#ffffff" fill-opacity="1"><g transform="translate(108.131421, 23.892803)"><g/></g></g><g fill="#ffffff" fill-opacity="1"><g transform="translate(113.54732, 23.892803)"><g><path d="M 7.265625 0.234375 C 6.128906 0.234375 5.117188 0.09375 4.234375 -0.1875 C 3.347656 -0.46875 2.609375 -0.832031 2.015625 -1.28125 C 1.421875 -1.738281 0.96875 -2.242188 0.65625 -2.796875 L 2.4375 -4.96875 L 2.71875 -4.96875 C 3.21875 -4.238281 3.847656 -3.65625 4.609375 -3.21875 C 5.367188 -2.78125 6.253906 -2.5625 7.265625 -2.5625 C 8.128906 -2.5625 8.78125 -2.742188 9.21875 -3.109375 C 9.664062 -3.484375 9.890625 -3.988281 9.890625 -4.625 C 9.890625 -5.019531 9.816406 -5.347656 9.671875 -5.609375 C 9.535156 -5.867188 9.300781 -6.09375 8.96875 -6.28125 C 8.644531 -6.46875 8.203125 -6.628906 7.640625 -6.765625 L 5.53125 -7.25 C 4.050781 -7.582031 2.953125 -8.140625 2.234375 -8.921875 C 1.515625 -9.703125 1.15625 -10.71875 1.15625 -11.96875 C 1.15625 -12.894531 1.382812 -13.707031 1.84375 -14.40625 C 2.3125 -15.113281 2.988281 -15.660156 3.875 -16.046875 C 4.757812 -16.429688 5.816406 -16.625 7.046875 -16.625 C 8.316406 -16.625 9.398438 -16.457031 10.296875 -16.125 C 11.203125 -15.800781 11.960938 -15.296875 12.578125 -14.609375 L 10.984375 -12.40625 L 10.703125 -12.40625 C 10.234375 -12.894531 9.695312 -13.257812 9.09375 -13.5 C 8.5 -13.738281 7.816406 -13.859375 7.046875 -13.859375 C 6.160156 -13.859375 5.484375 -13.703125 5.015625 -13.390625 C 4.554688 -13.078125 4.328125 -12.644531 4.328125 -12.09375 C 4.328125 -11.570312 4.488281 -11.15625 4.8125 -10.84375 C 5.144531 -10.539062 5.707031 -10.304688 6.5 -10.140625 L 8.65625 -9.6875 C 10.25 -9.351562 11.40625 -8.785156 12.125 -7.984375 C 12.84375 -7.179688 13.203125 -6.128906 13.203125 -4.828125 C 13.203125 -3.804688 12.976562 -2.914062 12.53125 -2.15625 C 12.09375 -1.394531 11.425781 -0.804688 10.53125 -0.390625 C 9.644531 0.0234375 8.554688 0.234375 7.265625 0.234375 Z M 7.265625 0.234375 "/></g></g></g><g fill="#ffffff" fill-opacity="1"><g transform="translate(127.630887, 23.892803)"><g><path d="M 8.53125 -2.953125 L 9.34375 -0.65625 C 9.007812 -0.375 8.585938 -0.15625 8.078125 0 C 7.566406 0.15625 6.988281 0.234375 6.34375 0.234375 C 5.007812 0.234375 3.992188 -0.128906 3.296875 -0.859375 C 2.597656 -1.585938 2.25 -2.644531 2.25 -4.03125 L 2.25 -9.921875 L 0.375 -9.921875 L 0.375 -12.375 L 2.25 -12.375 L 2.25 -14.796875 L 5.359375 -15.296875 L 5.359375 -12.375 L 8.875 -12.375 L 8.875 -9.921875 L 5.359375 -9.921875 L 5.359375 -4.265625 C 5.359375 -3.648438 5.484375 -3.203125 5.734375 -2.921875 C 5.992188 -2.640625 6.367188 -2.5 6.859375 -2.5 C 7.410156 -2.5 7.890625 -2.648438 8.296875 -2.953125 Z M 8.53125 -2.953125 "/></g></g></g><g fill="#ffffff" fill-opacity="1"><g transform="translate(137.240467, 23.892803)"><g><path d="M 5.65625 0.234375 C 4.269531 0.234375 3.242188 -0.144531 2.578125 -0.90625 C 1.921875 -1.664062 1.59375 -2.753906 1.59375 -4.171875 L 1.59375 -12.375 L 4.703125 -12.375 L 4.703125 -4.5625 C 4.703125 -3.8125 4.863281 -3.257812 5.1875 -2.90625 C 5.507812 -2.5625 6.015625 -2.390625 6.703125 -2.390625 C 7.554688 -2.390625 8.222656 -2.671875 8.703125 -3.234375 C 9.179688 -3.796875 9.421875 -4.6875 9.421875 -5.90625 L 9.421875 -12.375 L 12.53125 -12.375 L 12.53125 0 L 9.546875 0 L 9.546875 -1.8125 L 9.3125 -1.875 C 8.914062 -1.164062 8.429688 -0.632812 7.859375 -0.28125 C 7.285156 0.0625 6.550781 0.234375 5.65625 0.234375 Z M 5.65625 0.234375 "/></g></g></g><g fill="#ffffff" fill-opacity="1"><g transform="translate(151.54828, 23.892803)"><g><path d="M 6.109375 0.234375 C 5.128906 0.234375 4.265625 0 3.515625 -0.46875 C 2.765625 -0.945312 2.175781 -1.664062 1.75 -2.625 C 1.320312 -3.59375 1.109375 -4.773438 1.109375 -6.171875 C 1.109375 -7.585938 1.328125 -8.773438 1.765625 -9.734375 C 2.203125 -10.703125 2.804688 -11.421875 3.578125 -11.890625 C 4.359375 -12.367188 5.253906 -12.609375 6.265625 -12.609375 C 7.035156 -12.609375 7.703125 -12.472656 8.265625 -12.203125 C 8.835938 -11.941406 9.316406 -11.53125 9.703125 -10.96875 L 9.9375 -11.03125 L 9.9375 -17.34375 L 13.046875 -17.34375 L 13.046875 0 L 9.9375 0 L 9.9375 -1.609375 L 9.703125 -1.65625 C 9.359375 -1.070312 8.882812 -0.609375 8.28125 -0.265625 C 7.6875 0.0664062 6.960938 0.234375 6.109375 0.234375 Z M 7.125 -2.40625 C 8 -2.40625 8.6875 -2.710938 9.1875 -3.328125 C 9.695312 -3.953125 9.953125 -4.898438 9.953125 -6.171875 C 9.953125 -7.453125 9.695312 -8.40625 9.1875 -9.03125 C 8.6875 -9.65625 8 -9.96875 7.125 -9.96875 C 6.207031 -9.96875 5.507812 -9.660156 5.03125 -9.046875 C 4.550781 -8.441406 4.3125 -7.484375 4.3125 -6.171875 C 4.3125 -4.878906 4.550781 -3.925781 5.03125 -3.3125 C 5.507812 -2.707031 6.207031 -2.40625 7.125 -2.40625 Z M 7.125 -2.40625 "/></g></g></g><g fill="#ffffff" fill-opacity="1"><g transform="translate(166.371915, 23.892803)"><g><path d="M 3.328125 -13.84375 C 2.765625 -13.84375 2.304688 -14.015625 1.953125 -14.359375 C 1.609375 -14.703125 1.4375 -15.140625 1.4375 -15.671875 C 1.4375 -16.203125 1.609375 -16.640625 1.953125 -16.984375 C 2.304688 -17.328125 2.765625 -17.5 3.328125 -17.5 C 3.703125 -17.5 4.035156 -17.421875 4.328125 -17.265625 C 4.617188 -17.109375 4.84375 -16.890625 5 -16.609375 C 5.164062 -16.335938 5.25 -16.023438 5.25 -15.671875 C 5.25 -15.328125 5.164062 -15.015625 5 -14.734375 C 4.84375 -14.460938 4.617188 -14.242188 4.328125 -14.078125 C 4.035156 -13.921875 3.703125 -13.84375 3.328125 -13.84375 Z M 1.78125 0 L 1.78125 -12.375 L 4.890625 -12.375 L 4.890625 0 Z M 1.78125 0 "/></g></g></g><g fill="#ffffff" fill-opacity="1"><g transform="translate(173.032463, 23.892803)"><g><path d="M 7.1875 0.234375 C 5.976562 0.234375 4.914062 -0.0078125 4 -0.5 C 3.082031 -1 2.367188 -1.726562 1.859375 -2.6875 C 1.359375 -3.65625 1.109375 -4.816406 1.109375 -6.171875 C 1.109375 -7.535156 1.359375 -8.695312 1.859375 -9.65625 C 2.367188 -10.625 3.082031 -11.359375 4 -11.859375 C 4.914062 -12.359375 5.976562 -12.609375 7.1875 -12.609375 C 8.394531 -12.609375 9.457031 -12.359375 10.375 -11.859375 C 11.289062 -11.359375 12.003906 -10.625 12.515625 -9.65625 C 13.023438 -8.695312 13.28125 -7.535156 13.28125 -6.171875 C 13.28125 -4.816406 13.023438 -3.65625 12.515625 -2.6875 C 12.003906 -1.726562 11.289062 -1 10.375 -0.5 C 9.457031 -0.0078125 8.394531 0.234375 7.1875 0.234375 Z M 7.1875 -2.40625 C 9.113281 -2.40625 10.078125 -3.660156 10.078125 -6.171875 C 10.078125 -7.484375 9.828125 -8.441406 9.328125 -9.046875 C 8.835938 -9.660156 8.125 -9.96875 7.1875 -9.96875 C 5.269531 -9.96875 4.3125 -8.703125 4.3125 -6.171875 C 4.3125 -3.660156 5.269531 -2.40625 7.1875 -2.40625 Z M 7.1875 -2.40625 "/></g></g></g></g></g></g></g></svg>